<?xml version="1.0" encoding="UTF-8"?>
<svg width="20px" height="20px" viewBox="0 0 20 20" version="1.1" xmlns="http://www.w3.org/2000/svg" xmlns:xlink="http://www.w3.org/1999/xlink">
    <!-- Generator: Sketch 48.2 (47327) - http://www.bohemiancoding.com/sketch -->
    <title>add</title>
    <desc>Created with Sketch.</desc>
    <defs></defs>
    <g id="Page-1" stroke="none" stroke-width="1" fill="none" fill-rule="evenodd">
        <path d="M3,0 C1.347656,0 0,1.347656 0,3 L0,17 C0,18.652344 1.347656,20 3,20 L17,20 C18.652344,20 20,18.652344 20,17 L20,3 C20,1.347656 18.652344,0 17,0 L3,0 Z M3,2 L17,2 C17.550781,2 18,2.449219 18,3 L18,17 C18,17.550781 17.550781,18 17,18 L3,18 C2.449219,18 2,17.550781 2,17 L2,3 C2,2.449219 2.449219,2 3,2 Z M9,4 L9,9 L4,9 L4,11 L9,11 L9,16 L11,16 L11,11 L16,11 L16,9 L11,9 L11,4 L9,4 Z" id="add" fill="#F15F79" fill-rule="nonzero"></path>
    </g>
</svg>