<?xml version="1.0" encoding="UTF-8"?>
<svg width="70px" height="70px" viewBox="0 0 70 70" version="1.1" xmlns="http://www.w3.org/2000/svg" xmlns:xlink="http://www.w3.org/1999/xlink">
    <!-- Generator: Sketch 48.2 (47327) - http://www.bohemiancoding.com/sketch -->
    <title>chat</title>
    <desc>Created with Sketch.</desc>
    <defs></defs>
    <g id="Page-1" stroke="none" stroke-width="1" fill="none" fill-rule="evenodd">
        <path d="M7,0 C3.144533,0 0,3.144533 0,7 L0,52.5 L10.5,42 L45.5,42 C49.3554705,42 52.5,38.8554705 52.5,35 L52.5,7 C52.5,3.144533 49.3554705,0 45.5,0 L7,0 Z M56,17.5 L56,35 C56,40.9472665 51.4472665,45.5 45.5,45.5 L17.5,45.5 L17.5,52.5 C17.5,56.3554705 20.644533,59.5 24.5,59.5 L59.5,59.5 L70,70 L70,24.5 C70,20.644533 66.8554705,17.5 63,17.5 L56,17.5 Z" id="chat" fill="#DCDCDC" fill-rule="nonzero"></path>
    </g>
</svg>