<?xml version="1.0" encoding="UTF-8"?>
<svg width="60px" height="60px" viewBox="0 0 60 60" version="1.1" xmlns="http://www.w3.org/2000/svg" xmlns:xlink="http://www.w3.org/1999/xlink">
    <!-- Generator: Sketch 48.2 (47327) - http://www.bohemiancoding.com/sketch -->
    <title>Slice 1</title>
    <desc>Created with Sketch.</desc>
    <defs></defs>
    <g id="Page-1" stroke="none" stroke-width="1" fill="none" fill-rule="evenodd">
        <path d="M30,0 C13.394532,0 0,13.394532 0,30 C0,46.605468 13.394532,60 30,60 C46.605468,60 60,46.605468 60,30 C60,13.394532 46.605468,0 30,0 Z M30,6 C43.394532,6 54,16.605468 54,30 C54,43.394532 43.394532,54 30,54 C16.605468,54 6,43.394532 6,30 C6,16.605468 16.605468,6 30,6 Z M27,15 L27,31.21875 L27.84375,32.15625 L36.84375,41.15625 L41.15625,36.84375 L33,28.6875 L33,15 L27,15 Z" id="empty" fill="#DCDCDC" fill-rule="nonzero"></path>
    </g>
</svg>