<?xml version="1.0" encoding="UTF-8"?>
<svg width="20px" height="20px" viewBox="0 0 20 20" version="1.1" xmlns="http://www.w3.org/2000/svg" xmlns:xlink="http://www.w3.org/1999/xlink">
    <!-- Generator: Sketch 48.2 (47327) - http://www.bohemiancoding.com/sketch -->
    <title>Shape Copy 5</title>
    <desc>Created with Sketch.</desc>
    <defs></defs>
    <g id="Page-1" stroke="none" stroke-width="1" fill="none" fill-rule="evenodd">
        <path d="M18,0 L2,0 C0.898438,0 0,0.898438 0,2 L0,20 L4,16 L18,16 C19.101563,16 20,15.101563 20,14 L20,2 C20,0.898438 19.101563,0 18,0 Z M11,9 L9,9 L9,7 L11,7 L11,9 Z M15,9 L13,9 L13,7 L15,7 L15,9 Z M7,9 L5,9 L5,7 L7,7 L7,9 Z" id="Shape-Copy-5" fill="#FFFFFF" fill-rule="nonzero"></path>
    </g>
</svg>