<?xml version="1.0" encoding="UTF-8"?>
<svg width="18px" height="18px" viewBox="0 0 18 18" version="1.1" xmlns="http://www.w3.org/2000/svg" xmlns:xlink="http://www.w3.org/1999/xlink">
    <!-- Generator: Sketch 48.2 (47327) - http://www.bohemiancoding.com/sketch -->
    <title>Untitled</title>
    <desc>Created with Sketch.</desc>
    <defs></defs>
    <g id="Page-1" stroke="none" stroke-width="1" fill="none" fill-rule="evenodd">
        <path d="M17,12 L13,12 L10.4375,14.5625 C7.714844,13.03125 5,10.457031 3.414063,7.664063 C3.410156,7.644531 3.398438,7.617188 3.398438,7.601563 L6,5 L6,1 C6,0.398438 5.601563,0 5,0 L1,0 C0.398438,0 0,0.398438 0,1 L0,3 C0,10.097656 8.941406,18 15,18 L17,18 C17.601563,18 18,17.601563 18,17 L18,13 C18,12.398438 17.601563,12 17,12 Z" id="Shape-Copy" fill="#FFFFFF" fill-rule="nonzero"></path>
    </g>
</svg>