<?xml version="1.0" encoding="UTF-8"?>
<svg width="36px" height="32px" viewBox="0 0 36 32" version="1.1" xmlns="http://www.w3.org/2000/svg" xmlns:xlink="http://www.w3.org/1999/xlink">
    <!-- Generator: Sketch 48.2 (47327) - http://www.bohemiancoding.com/sketch -->
    <title>Shape</title>
    <desc>Created with Sketch.</desc>
    <defs></defs>
    <g id="Page-1" stroke="none" stroke-width="1" fill="none" fill-rule="evenodd">
        <g id="zaglushka" fill="#D6D6D6" fill-rule="nonzero">
            <path d="M12.8909091,0.418181818 L9.4,3.90909091 L4.16363636,3.90909091 C2.24090996,3.90909091 0.672727273,5.4772736 0.672727273,7.4 L0.672727273,28.3454545 C0.672727273,30.2681827 2.24090996,31.8363636 4.16363636,31.8363636 L32.0909091,31.8363636 C34.0136372,31.8363636 35.5818182,30.2681827 35.5818182,28.3454545 L35.5818182,7.4 C35.5818182,5.4772736 34.0136372,3.90909091 32.0909091,3.90909091 L26.8545455,3.90909091 L23.3636364,0.418181818 L12.8909091,0.418181818 Z M18.1272727,9.14545455 C23.0159087,9.14545455 26.8545455,12.9840913 26.8545455,17.8727273 C26.8545455,22.7613632 23.0159087,26.6 18.1272727,26.6 C13.2386368,26.6 9.4,22.7613632 9.4,17.8727273 C9.4,12.9840913 13.2386368,9.14545455 18.1272727,9.14545455 Z M18.1272727,11.7636364 C14.7522723,11.7636364 12.0181818,14.4977268 12.0181818,17.8727273 C12.0181818,21.2477277 14.7522723,23.9818182 18.1272727,23.9818182 C21.5022732,23.9818182 24.2363636,21.2477277 24.2363636,17.8727273 C24.2363636,14.4977268 21.5022732,11.7636364 18.1272727,11.7636364 Z" id="Shape"></path>
        </g>
    </g>
</svg>