<?xml version="1.0" encoding="UTF-8"?>
<svg width="20px" height="20px" viewBox="0 0 20 20" version="1.1" xmlns="http://www.w3.org/2000/svg" xmlns:xlink="http://www.w3.org/1999/xlink">
    <!-- Generator: Sketch 48.2 (47327) - http://www.bohemiancoding.com/sketch -->
    <title>Untitled</title>
    <desc>Created with Sketch.</desc>
    <defs></defs>
    <g id="Page-1" stroke="none" stroke-width="1" fill="none" fill-rule="evenodd">
        <path d="M19,0 L16.46875,2.51944012 C14.707031,1.03032635 12.472656,0.0933125972 10,0.0933125972 C4.464844,0.0933125972 0,4.53732529 0,10.0466563 C0,15.5559873 4.464844,20 10,20 C15.535156,20 20,15.5559873 20,10.0466563 L18,10.0466563 C18,14.490669 14.464844,18.0093313 10,18.0093313 C5.535156,18.0093313 2,14.490669 2,10.0466563 C2,5.60264361 5.535156,2.08398134 10,2.08398134 C11.921875,2.08398134 13.660156,2.77605026 15.0625,3.91912908 L12.90625,6.06531882 L19,6.06531882 L19,0 Z" id="resend" fill="#F15F79" fill-rule="nonzero"></path>
    </g>
</svg>