<?xml version="1.0" encoding="UTF-8"?>
<svg width="65px" height="65px" viewBox="0 0 65 65" version="1.1" xmlns="http://www.w3.org/2000/svg" xmlns:xlink="http://www.w3.org/1999/xlink">
    <!-- Generator: Sketch 48.2 (47327) - http://www.bohemiancoding.com/sketch -->
    <title>Untitled</title>
    <desc>Created with Sketch.</desc>
    <defs>
        <circle id="path-1" cx="32.5" cy="32.5" r="32.5"></circle>
    </defs>
    <g id="Page-1" stroke="none" stroke-width="1" fill="none" fill-rule="evenodd">
        <g id="Group-2-Copy">
            <g id="user">
                <mask id="mask-2" fill="white">
                    <use xlink:href="#path-1"></use>
                </mask>
                <use id="Mask" fill="#F4F4F4" xlink:href="#path-1"></use>
            </g>
            <g id="Group" transform="translate(11.916667, 18.416667)" fill="#C8C8C8">
                <path d="M6.17088333,23.3410185 L3.70705833,26.7177083 C3.82026667,26.8019676 11.318775,32.4220602 21.2522917,32.4220602 C26.2540417,32.4220602 31.8732917,30.9959722 37.476075,26.7198148 L35.0163667,23.3410185 C20.78505,34.1999306 6.761625,23.7896991 6.17088333,23.3410185 L6.17088333,23.3410185 Z" id="Shape"></path>
                <path d="M9.12253333,14.3674074 C12.28825,14.3674074 14.8549917,11.740625 14.8549917,8.50085648 C14.8549917,7.06212963 14.3280583,5.76032407 13.4882583,4.74078704 L17.4423167,4.74078704 L17.4423167,0.527824074 L0.804808333,0.527824074 L0.804808333,4.74078704 L4.75680833,4.74078704 C3.91700833,5.76032407 3.390075,7.06212963 3.390075,8.50085648 C3.390075,11.7427315 5.95681667,14.3674074 9.12253333,14.3674074 L9.12253333,14.3674074 Z" id="Shape"></path>
                <path d="M23.72435,4.74289352 L27.9583417,4.74289352 C27.1185417,5.76243056 26.5916083,7.06423611 26.5916083,8.50296296 C26.5916083,11.7427315 29.15835,14.3695139 32.3240667,14.3695139 C35.4897833,14.3695139 38.056525,11.7427315 38.056525,8.50296296 C38.056525,7.06423611 37.5295917,5.76243056 36.6897917,4.74289352 L40.3618583,4.74289352 L40.3618583,0.529930556 L23.72435,0.529930556 L23.72435,4.74289352 L23.72435,4.74289352 Z" id="Shape"></path>
            </g>
        </g>
    </g>
</svg>