<?xml version="1.0" encoding="UTF-8"?>
<svg width="18px" height="4px" viewBox="0 0 18 4" version="1.1" xmlns="http://www.w3.org/2000/svg" xmlns:xlink="http://www.w3.org/1999/xlink">
    <!-- Generator: Sketch 48.2 (47327) - http://www.bohemiancoding.com/sketch -->
    <title>Shape</title>
    <desc>Created with Sketch.</desc>
    <defs></defs>
    <g id="Page-1" stroke="none" stroke-width="1" fill="none" fill-rule="evenodd">
        <path d="M2,0 C0.894531,0 0,0.894531 0,2 C0,3.105469 0.894531,4 2,4 C3.105469,4 4,3.105469 4,2 C4,0.894531 3.105469,0 2,0 Z M9,0 C7.894531,0 7,0.894531 7,2 C7,3.105469 7.894531,4 9,4 C10.105469,4 11,3.105469 11,2 C11,0.894531 10.105469,0 9,0 Z M16,0 C14.894531,0 14,0.894531 14,2 C14,3.105469 14.894531,4 16,4 C17.105469,4 18,3.105469 18,2 C18,0.894531 17.105469,0 16,0 Z" id="Shape" fill="#FFFFFF" fill-rule="nonzero"></path>
    </g>
</svg>