<?xml version="1.0" encoding="UTF-8"?>
<svg width="17px" height="20px" viewBox="0 0 17 20" version="1.1" xmlns="http://www.w3.org/2000/svg" xmlns:xlink="http://www.w3.org/1999/xlink">
    <!-- Generator: Sketch 48.2 (47327) - http://www.bohemiancoding.com/sketch -->
    <title>logout</title>
    <desc>Created with Sketch.</desc>
    <defs></defs>
    <g id="Page-1" stroke="none" stroke-width="1" fill="none" fill-rule="evenodd">
        <path d="M2,0 C0.898438,0 0,0.898438 0,2 L0,18 C0,19.101563 0.898438,20 2,20 L14,20 C15.101563,20 16,19.101563 16,18 L16,13.25 L14,14.75 L14,18 L2,18 L2,2 L14,2 L14,5.25 L16,6.75 L16,2 C16,0.898438 15.101563,0 14,0 L2,0 Z M12,6.25 L12,9 L7,9 L7,11 L12,11 L12,13.75 L17,10 L12,6.25 Z" id="logout" fill="#F15F79" fill-rule="nonzero"></path>
    </g>
</svg>