<?xml version="1.0" encoding="UTF-8"?>
<svg width="123px" height="29px" viewBox="0 0 123 29" version="1.1" xmlns="http://www.w3.org/2000/svg" xmlns:xlink="http://www.w3.org/1999/xlink">
    <!-- Generator: Sketch 48.2 (47327) - http://www.bohemiancoding.com/sketch -->
    <title>logo</title>
    <desc>Created with Sketch.</desc>
    <defs></defs>
    <g id="Page-1" stroke="none" stroke-width="1" fill="none" fill-rule="evenodd">
        <g id="logo">
            <path d="M20.8186368,27.137654 C20.8165924,27.1387776 20.8145468,27.1399015 20.8125,27.1410256 L14.6246358,17.2993161 L12.9466587,17.2993161 L12.9466587,21.4486185 L9.11692271,21.4486185 L9.11692271,7.7480916 L15.6511629,7.7480916 C16.7171772,7.7480916 17.6186696,7.87857151 18.3556672,8.13953523 C19.0926647,8.40049895 19.6914662,8.76584268 20.1520897,9.23557738 C20.9680513,10.0184685 21.3760259,11.0818798 21.3760259,12.4258429 C21.3760259,13.5218904 21.1193967,14.3961057 20.6061306,15.0876596 C20.0928644,15.7792134 19.4019396,16.307657 18.5333353,16.6730063 C19.9393199,19.1659153 21.1970334,21.2149197 22.306476,22.8200195 C24.6464852,20.7468976 26.060625,17.7504017 26.060625,14.5 C26.060625,8.33990087 21.0238284,3.34615385 14.810625,3.34615385 C8.59742156,3.34615385 3.560625,8.33990087 3.560625,14.5 C3.560625,20.6600991 8.59742156,25.6538462 14.810625,25.6538462 C15.0110751,25.6538462 15.210719,25.6486819 15.4094382,25.6383995 C15.7614794,26.1444238 16.4327623,27.1880544 17.4232868,28.7692916 C16.5755446,28.920865 15.7024059,29 14.810625,29 C6.73346053,29 0.185625,22.5081289 0.185625,14.5 C0.185625,6.49187113 6.73346053,0 14.810625,0 C22.8877895,0 29.435625,6.49187113 29.435625,14.5 C29.435625,20.2732639 26.0324955,25.2584778 21.1066163,27.5913337 C21.0073641,27.4351975 20.9113709,27.2839709 20.8186368,27.137654 Z M15.4734948,14.3243445 C16.1315283,14.3243445 16.6382065,14.1775546 16.9935446,13.8839704 C17.3488827,13.5903862 17.5265491,13.1956845 17.5265491,12.6998535 L17.5265491,12.6607091 C17.5265491,12.1126853 17.3423025,11.7049356 16.9738037,11.4374478 C16.6053049,11.16996 16.0986267,11.0362181 15.4537538,11.0362181 L12.9466587,11.0362181 L12.9466587,14.3243445 L15.4734948,14.3243445 Z" id="Combined-Shape" fill="#EF5E7A" fill-rule="nonzero"></path>
            <path d="M46.404375,13.4441026 C47.1543788,13.4441026 47.731873,13.2767965 48.136875,12.9421795 C48.541877,12.6075624 48.744375,12.1576951 48.744375,11.5925641 L48.744375,11.5479487 C48.744375,10.9233302 48.5343771,10.4585913 48.114375,10.1537179 C47.6943729,9.84884463 47.1168787,9.69641026 46.381875,9.69641026 L43.524375,9.69641026 L43.524375,13.4441026 L46.404375,13.4441026 Z M39.159375,5.94871795 L46.606875,5.94871795 C47.8218811,5.94871795 48.8493708,6.09743441 49.689375,6.39487179 C50.5293792,6.69230918 51.2118724,7.10871527 51.736875,7.64410256 C52.6668797,8.53641472 53.131875,9.74845388 53.131875,11.2802564 L53.131875,11.3248718 C53.131875,12.5294932 52.8393779,13.5258935 52.254375,14.3141026 C51.6693721,15.1023116 50.88188,15.7046133 49.891875,16.1210256 L53.649375,21.5641026 L48.609375,21.5641026 L45.436875,16.8348718 L43.524375,16.8348718 L43.524375,21.5641026 L39.159375,21.5641026 L39.159375,5.94871795 Z M64.606875,15.4071795 L62.851875,10.9679487 L61.074375,15.4071795 L64.606875,15.4071795 Z M60.781875,5.83717949 L64.989375,5.83717949 L71.694375,21.5641026 L67.014375,21.5641026 L65.866875,18.775641 L59.791875,18.775641 L58.666875,21.5641026 L54.076875,21.5641026 L60.781875,5.83717949 Z M79.366875,17.7271795 C80.6718815,17.7271795 81.721871,17.3851316 82.516875,16.7010256 C83.311879,16.0169197 83.709375,15.0428268 83.709375,13.7787179 L83.709375,13.7341026 C83.709375,12.4848655 83.311879,11.5144906 82.516875,10.8229487 C81.721871,10.1314068 80.6718815,9.78564103 79.366875,9.78564103 L77.589375,9.78564103 L77.589375,17.7271795 L79.366875,17.7271795 Z M73.224375,5.94871795 L79.299375,5.94871795 C80.7093821,5.94871795 81.9656195,6.13833144 83.068125,6.5175641 C84.1706305,6.89679677 85.1006212,7.42845812 85.858125,8.1125641 C86.6156288,8.79667009 87.193123,9.61089271 87.590625,10.5552564 C87.988127,11.4996201 88.186875,12.5369174 88.186875,13.6671795 L88.186875,13.7117949 C88.186875,14.8420569 87.984377,15.8867901 87.579375,16.8460256 C87.174373,17.8052612 86.5893788,18.6343555 85.824375,19.3333333 C85.0593712,20.0323112 84.1181306,20.5788442 83.000625,20.9729487 C81.8831194,21.3670533 80.6193821,21.5641026 79.209375,21.5641026 L73.224375,21.5641026 L73.224375,5.94871795 Z M99.706875,15.4071795 L97.951875,10.9679487 L96.174375,15.4071795 L99.706875,15.4071795 Z M95.881875,5.83717949 L100.089375,5.83717949 L106.794375,21.5641026 L102.114375,21.5641026 L100.966875,18.775641 L94.891875,18.775641 L93.766875,21.5641026 L89.176875,21.5641026 L95.881875,5.83717949 Z M115.569375,13.4441026 C116.319379,13.4441026 116.896873,13.2767965 117.301875,12.9421795 C117.706877,12.6075624 117.909375,12.1576951 117.909375,11.5925641 L117.909375,11.5479487 C117.909375,10.9233302 117.699377,10.4585913 117.279375,10.1537179 C116.859373,9.84884463 116.281879,9.69641026 115.546875,9.69641026 L112.689375,9.69641026 L112.689375,13.4441026 L115.569375,13.4441026 Z M108.324375,5.94871795 L115.771875,5.94871795 C116.986881,5.94871795 118.014371,6.09743441 118.854375,6.39487179 C119.694379,6.69230918 120.376872,7.10871527 120.901875,7.64410256 C121.83188,8.53641472 122.296875,9.74845388 122.296875,11.2802564 L122.296875,11.3248718 C122.296875,12.5294932 122.004378,13.5258935 121.419375,14.3141026 C120.834372,15.1023116 120.04688,15.7046133 119.056875,16.1210256 L122.814375,21.5641026 L117.774375,21.5641026 L114.601875,16.8348718 L112.689375,16.8348718 L112.689375,21.5641026 L108.324375,21.5641026 L108.324375,5.94871795 Z" id="RADAR-Copy-2" fill="#000000"></path>
        </g>
    </g>
</svg>