<?xml version="1.0" encoding="UTF-8"?>
<svg width="19px" height="11px" viewBox="0 0 19 11" version="1.1" xmlns="http://www.w3.org/2000/svg" xmlns:xlink="http://www.w3.org/1999/xlink">
    <!-- Generator: Sketch 48.2 (47327) - http://www.bohemiancoding.com/sketch -->
    <title>Group 3</title>
    <desc>Created with Sketch.</desc>
    <defs></defs>
    <g id="Page-1" stroke="none" stroke-width="1" fill="none" fill-rule="evenodd">
        <g id="Group-3" fill="#5B80B5">
            <path d="M10.1454799,10.9942993 C10.7779456,10.9942993 10.7779456,10.1141445 10.7779456,9.77271045 C10.7779456,9.16191604 11.4104114,8.55112164 12.0428771,8.55112164 C12.6753428,8.55112164 13.7600215,9.59863404 14.57274,10.3835048 C15.2052057,10.9942993 15.2052057,10.9942993 15.8376714,10.9942993 L17.7350686,10.9942993 C17.7350686,10.9942993 19,10.9478789 19,9.77271045 C19,9.39096394 18.566761,8.74352188 17.1026028,7.32953283 C15.8376714,6.10794403 15.1887616,6.73889465 17.1026028,4.27556082 C18.2682372,2.77544977 19.1163737,1.41643222 18.9709066,1.02430221 C18.8317641,0.649885245 15.5897448,0.0537499075 15.2052057,0.610794403 C13.9402742,2.44317761 13.7081593,2.8921115 13.3078085,3.66476642 C12.6753428,4.88635522 12.6127287,5.49714963 12.0428771,5.49714963 C11.4679657,5.49714963 11.4104114,4.31159769 11.4104114,3.66476642 C11.4104114,1.64548012 11.7133624,0.217442807 10.7779456,0 L8.88054847,0 C7.86227866,0 6.98315131,0.610794403 6.98315131,0.610794403 C6.98315131,0.610794403 6.19826135,1.20204338 6.35068559,1.22158881 C6.53916037,1.24602058 7.61561703,0.968719923 7.61561703,1.83238321 L7.61561703,3.05397201 C7.61561703,3.05397201 7.62130922,5.49714963 6.98315131,5.49714963 C6.35068559,5.49714963 5.08575415,3.05397201 3.82082271,1.22158881 C3.32433711,0.502683794 3.18835698,0.610794403 2.55589126,0.610794403 C1.87788801,0.610794403 1.29159229,0.636447768 0.658494102,0.636447768 C0.0260283814,0.636447768 -0.0549272308,1.0255238 0.0260283814,1.22158881 C1.29095982,4.27556082 2.19981306,6.19345525 4.6031828,8.6097579 C6.80732584,10.8263308 8.27970604,10.9442141 9.51301419,10.9942993 C9.82924705,11.0071259 9.51301419,10.9942993 10.1454799,10.9942993 L10.1454799,10.9942993 Z" id="VK"></path>
        </g>
    </g>
</svg>